<svg width="185" height="181" viewBox="0 0 185 181" fill="none" xmlns="http://www.w3.org/2000/svg"><path d="M14.7727 15.3518C13.7189 15.0206 12.5962 15.6064 12.265 16.6601L6.86799 33.832C6.5368 34.8857 7.12255 36.0084 8.1763 36.3396C9.23005 36.6708 10.3528 36.0851 10.684 35.0313L15.4813 19.7674L30.7452 24.5648C31.7989 24.896 32.9216 24.3102 33.2528 23.2565C33.584 22.2027 32.9982 21.08 31.9445 20.7488L14.7727 15.3518ZM41.0737 62.9674L39.406 64.0713C39.432 64.1106 39.4594 64.149 39.4881 64.1864L41.0737 62.9674ZM91.5577 107.637L92.5546 105.903L92.5544 105.903L91.5577 107.637ZM135.458 118.487L134.439 116.766L134.438 116.766L135.458 118.487ZM112.883 96.6262L112.988 94.629L112.985 94.6288L112.883 96.6262ZM105.99 124.89L104.413 126.12L104.413 126.12L105.99 124.89ZM164.689 170.653C165.676 171.149 166.879 170.752 167.375 169.765C167.871 168.778 167.473 167.576 166.486 167.079L164.689 170.653ZM12.3998 18.1849C16.0455 25.1726 26.6326 44.7745 39.406 64.0713L42.7414 61.8634C30.0751 42.7283 19.5599 23.2612 15.9462 16.3347L12.3998 18.1849ZM39.4881 64.1864C53.0569 81.8357 71.2364 98.2618 90.5609 109.37L92.5544 105.903C73.7257 95.0789 55.936 79.0178 42.6593 61.7484L39.4881 64.1864ZM90.5608 109.37C95.4715 112.194 103.68 116.707 112.169 119.642C116.414 121.109 120.807 122.21 124.945 122.481C129.075 122.752 133.107 122.205 136.477 120.207L134.438 116.766C132.004 118.209 128.868 118.73 125.207 118.49C121.553 118.251 117.531 117.263 113.476 115.861C105.363 113.057 97.4268 108.704 92.5546 105.903L90.5608 109.37ZM136.476 120.208C138.515 119.002 140.006 117.584 140.785 115.902C141.594 114.155 141.521 112.37 140.891 110.728C139.71 107.654 136.525 104.93 133.14 102.737C129.649 100.477 125.516 98.5129 121.866 97.0936C118.292 95.7042 114.913 94.7302 112.988 94.629L112.778 98.6234C114.008 98.6881 116.866 99.4414 120.416 100.822C123.888 102.172 127.763 104.02 130.966 106.095C134.274 108.238 136.469 110.372 137.157 112.162C137.46 112.951 137.443 113.599 137.155 114.221C136.837 114.908 136.078 115.796 134.439 116.766L136.476 120.208ZM112.985 94.6288C108.04 94.374 104.238 95.4431 101.596 97.6914C98.9436 99.9482 97.7667 103.132 97.5421 106.464C97.1007 113.013 100.259 120.79 104.413 126.12L107.568 123.661C103.82 118.851 101.177 112.02 101.533 106.733C101.707 104.148 102.579 102.107 104.188 100.738C105.807 99.3601 108.478 98.4019 112.78 98.6235L112.985 94.6288ZM104.413 126.12C119.833 145.885 143.033 159.768 164.689 170.653L166.486 167.079C144.922 156.241 122.41 142.684 107.567 123.66L104.413 126.12Z" fill="#24CD90"/></svg>