<svg id="visual" viewBox="0 0 1024 700" width="1024" height="700" xmlns="http://www.w3.org/2000/svg" xmlns:xlink="http://www.w3.org/1999/xlink" version="1.1"><rect x="0" y="0" width="1024" height="700" fill="#066756"></rect><path d="M0 658L7.2 659.2C14.3 660.3 28.7 662.7 42.8 662.2C57 661.7 71 658.3 85.2 658.2C99.3 658 113.7 661 128 664.3C142.3 667.7 156.7 671.3 170.8 670C185 668.7 199 662.3 213.2 660.3C227.3 658.3 241.7 660.7 256 663.8C270.3 667 284.7 671 298.8 670.8C313 670.7 327 666.3 341.2 663.5C355.3 660.7 369.7 659.3 384 658C398.3 656.7 412.7 655.3 426.8 657.5C441 659.7 455 665.3 469.2 664.8C483.3 664.3 497.7 657.7 512 657C526.3 656.3 540.7 661.7 554.8 664.3C569 667 583 667 597.2 668C611.3 669 625.7 671 640 669.3C654.3 667.7 668.7 662.3 682.8 660.3C697 658.3 711 659.7 725.2 663C739.3 666.3 753.7 671.7 768 671.7C782.3 671.7 796.7 666.3 810.8 664.5C825 662.7 839 664.3 853.2 667C867.3 669.7 881.7 673.3 896 673C910.3 672.7 924.7 668.3 938.8 664.7C953 661 967 658 981.2 655.7C995.3 653.3 1009.7 651.7 1016.8 650.8L1024 650L1024 701L1016.8 701C1009.7 701 995.3 701 981.2 701C967 701 953 701 938.8 701C924.7 701 910.3 701 896 701C881.7 701 867.3 701 853.2 701C839 701 825 701 810.8 701C796.7 701 782.3 701 768 701C753.7 701 739.3 701 725.2 701C711 701 697 701 682.8 701C668.7 701 654.3 701 640 701C625.7 701 611.3 701 597.2 701C583 701 569 701 554.8 701C540.7 701 526.3 701 512 701C497.7 701 483.3 701 469.2 701C455 701 441 701 426.8 701C412.7 701 398.3 701 384 701C369.7 701 355.3 701 341.2 701C327 701 313 701 298.8 701C284.7 701 270.3 701 256 701C241.7 701 227.3 701 213.2 701C199 701 185 701 170.8 701C156.7 701 142.3 701 128 701C113.7 701 99.3 701 85.2 701C71 701 57 701 42.8 701C28.7 701 14.3 701 7.2 701L0 701Z" fill="#F8F9FB" stroke-linecap="round" stroke-linejoin="miter"></path></svg>